<svg xmlns="http://www.w3.org/2000/svg" viewBox="0 0 192.34 192.34"><defs><style>.cls-1{fill:#1d1d1b;}.cls-10,.cls-13,.cls-14,.cls-17,.cls-2,.cls-3{fill:#fff;}.cls-3{font-size:18.38px;letter-spacing:0.01em;}.cls-10,.cls-14,.cls-3{font-family:BebasNeueBold;}.cls-4{letter-spacing:0.02em;}.cls-5{letter-spacing:0.05em;}.cls-6{letter-spacing:0.02em;}.cls-7{letter-spacing:0.03em;}.cls-8{letter-spacing:0.03em;}.cls-9{letter-spacing:0.03em;}.cls-10{font-size:12.25px;letter-spacing:0.05em;}.cls-11{letter-spacing:0.05em;}.cls-12{letter-spacing:0.05em;}.cls-13{font-size:24.51px;font-family:Weston-Free, Weston Free;}.cls-14{font-size:13.01px;}.cls-15{letter-spacing:0em;}.cls-16{letter-spacing:0em;}.cls-17{font-size:11.21px;font-family:Pacifico;}</style></defs><title>Asset 1</title><g id="Layer_2" data-name="Layer 2"><g id="_3" data-name="3"><circle id="badge_shape" data-name="badge shape" class="cls-1" cx="96.17" cy="96.17" r="96.17"/><g id="elements"><path id="curly_border" data-name="curly border" class="cls-2" d="M96.17,186c-1,0-1.92-.81-2.79-1.59a4.5,4.5,0,0,0-2.1-1.33h0A4.61,4.61,0,0,0,89,184.2a5.14,5.14,0,0,1-2.71,1.27h-.21a4.7,4.7,0,0,1-2.6-1.88c-.64-.72-1.3-1.46-1.93-1.56a4.37,4.37,0,0,0-2.37.84,4.82,4.82,0,0,1-3,.92c-1-.22-1.69-1.21-2.37-2.16-.55-.78-1.13-1.59-1.74-1.77a4.62,4.62,0,0,0-2.45.57,4.85,4.85,0,0,1-3.13.57c-1-.33-1.54-1.38-2.1-2.4-.46-.85-.94-1.72-1.54-2a4.64,4.64,0,0,0-2.49.29,4.89,4.89,0,0,1-3.18.21,4.66,4.66,0,0,1-1.81-2.62A4.48,4.48,0,0,0,54,172.38a4.76,4.76,0,0,0-2.5,0,10.91,10.91,0,0,1-1.76.2,2.53,2.53,0,0,1-1.42-.35,4.65,4.65,0,0,1-1.51-2.81,4.46,4.46,0,0,0-1.07-2.26,2.55,2.55,0,0,0-1.47-.31c-.33,0-.67,0-1,0s-.72,0-1.07,0a3.27,3.27,0,0,1-2.07-.54,4.59,4.59,0,0,1-1.19-3,4.43,4.43,0,0,0-.81-2.36,4.33,4.33,0,0,0-2.44-.54,4.76,4.76,0,0,1-3.08-.85,4.7,4.7,0,0,1-.84-3.08,4.53,4.53,0,0,0-.54-2.44,4.5,4.5,0,0,0-2.37-.81,4.66,4.66,0,0,1-3-1.18c-.63-.79-.56-2-.5-3.15a4.45,4.45,0,0,0-.27-2.49,4.42,4.42,0,0,0-2.25-1.07c-1.12-.32-2.28-.65-2.82-1.51a4.61,4.61,0,0,1-.14-3.18,4.39,4.39,0,0,0,0-2.5A4.32,4.32,0,0,0,17.83,137a4.72,4.72,0,0,1-2.63-1.82,4.62,4.62,0,0,1,.22-3.18,4.49,4.49,0,0,0,.29-2.49c-.25-.59-1.12-1.07-2-1.54-1-.56-2.07-1.14-2.41-2.1a4.71,4.71,0,0,1,.57-3.13,4.43,4.43,0,0,0,.57-2.44c-.17-.62-1-1.2-1.77-1.75-1-.68-1.93-1.37-2.15-2.36a4.59,4.59,0,0,1,.92-3,4.48,4.48,0,0,0,.84-2.36c-.11-.64-.85-1.3-1.56-1.94-.87-.78-1.77-1.58-1.88-2.59a4.69,4.69,0,0,1,1.25-2.92,4.51,4.51,0,0,0,1.11-2.26A4.43,4.43,0,0,0,7.9,99c-.77-.87-1.58-1.77-1.58-2.79s.81-1.92,1.58-2.79a4.45,4.45,0,0,0,1.34-2.1A4.48,4.48,0,0,0,8.13,89a4.69,4.69,0,0,1-1.25-2.92,4.7,4.7,0,0,1,1.88-2.6c.71-.64,1.45-1.3,1.56-1.93a4.51,4.51,0,0,0-.84-2.37,4.57,4.57,0,0,1-.92-3c.22-1,1.2-1.69,2.15-2.37.79-.55,1.6-1.13,1.78-1.75a4.48,4.48,0,0,0-.58-2.44,4.71,4.71,0,0,1-.57-3.13c.34-1,1.39-1.54,2.41-2.1.84-.46,1.71-.94,2-1.54a4.5,4.5,0,0,0-.29-2.49c-.32-1.11-.66-2.27-.22-3.18a4.69,4.69,0,0,1,2.63-1.81A4.4,4.4,0,0,0,20,54a4.39,4.39,0,0,0,0-2.5,4.73,4.73,0,0,1,.14-3.18c.54-.86,1.7-1.19,2.82-1.51a4.5,4.5,0,0,0,2.26-1.07,4.44,4.44,0,0,0,.26-2.49c-.06-1.16-.13-2.36.5-3.14s1.82-1,3-1.19a4.43,4.43,0,0,0,2.36-.81,4.42,4.42,0,0,0,.54-2.44c.07-1.16.13-2.36.85-3.07a4.61,4.61,0,0,1,3.08-.85,4.47,4.47,0,0,0,2.43-.54A4.42,4.42,0,0,0,39,28.88c.2-1.14.4-2.33,1.19-3a3.3,3.3,0,0,1,2.08-.54c.35,0,.71,0,1.07,0s.69,0,1,0a2.57,2.57,0,0,0,1.47-.31,4.42,4.42,0,0,0,1.06-2.25,4.73,4.73,0,0,1,1.51-2.82,2.64,2.64,0,0,1,1.42-.34,11,11,0,0,1,1.77.2,4.74,4.74,0,0,0,2.5,0,4.47,4.47,0,0,0,1.31-2.12c.45-1.08.9-2.19,1.82-2.63a5,5,0,0,1,3.18.22,4.62,4.62,0,0,0,2.48.29c.6-.25,1.08-1.12,1.54-2,.57-1,1.15-2.07,2.11-2.41a4.92,4.92,0,0,1,3.13.57,4.59,4.59,0,0,0,2.44.57c.62-.17,1.19-1,1.75-1.77.67-1,1.37-1.93,2.36-2.15a4.7,4.7,0,0,1,3,.92,4.49,4.49,0,0,0,2.37.84c.63-.11,1.3-.85,1.93-1.56a4.7,4.7,0,0,1,2.6-1.88A4.73,4.73,0,0,1,89,8.13a4.62,4.62,0,0,0,2.2,1.11A4.34,4.34,0,0,0,93.38,7.9c.87-.77,1.77-1.58,2.79-1.58S98.09,7.13,99,7.9a4.43,4.43,0,0,0,2.09,1.34h0a4.55,4.55,0,0,0,2.25-1.11,4.71,4.71,0,0,1,2.92-1.25,4.64,4.64,0,0,1,2.59,1.88c.64.71,1.31,1.45,1.94,1.56a4.43,4.43,0,0,0,2.36-.84,4.8,4.8,0,0,1,3-.92c1,.22,1.69,1.2,2.36,2.16.56.78,1.13,1.59,1.75,1.77a4.71,4.71,0,0,0,2.44-.58,5,5,0,0,1,3.13-.57c1,.34,1.54,1.39,2.11,2.41.46.84.94,1.71,1.54,2a4.65,4.65,0,0,0,2.49-.29,4.94,4.94,0,0,1,3.17-.22c.92.44,1.38,1.56,1.82,2.63A4.47,4.47,0,0,0,138.29,20a4.67,4.67,0,0,0,2.51,0,10.91,10.91,0,0,1,1.76-.2,2.56,2.56,0,0,1,1.42.35c.86.53,1.19,1.69,1.51,2.81a4.42,4.42,0,0,0,1.07,2.26,2.54,2.54,0,0,0,1.46.3c.33,0,.68,0,1,0s.73,0,1.07,0a3.36,3.36,0,0,1,2.08.54c.79.63,1,1.82,1.19,3a4.35,4.35,0,0,0,.81,2.36,4.4,4.4,0,0,0,2.44.54c1.16.07,2.36.13,3.07.85s.78,1.91.85,3.07a4.4,4.4,0,0,0,.54,2.44,4.46,4.46,0,0,0,2.36.82,4.67,4.67,0,0,1,3,1.18c.63.79.56,2,.5,3.15a4.46,4.46,0,0,0,.26,2.49,4.5,4.5,0,0,0,2.26,1.06,4.67,4.67,0,0,1,2.81,1.51,4.7,4.7,0,0,1,.15,3.19,4.39,4.39,0,0,0,0,2.5,4.39,4.39,0,0,0,2.12,1.31c1.07.45,2.19.9,2.63,1.82a4.74,4.74,0,0,1-.22,3.18,4.37,4.37,0,0,0-.29,2.48c.25.6,1.12,1.08,2,1.54,1,.57,2.07,1.15,2.41,2.11a4.66,4.66,0,0,1-.58,3.13,4.43,4.43,0,0,0-.57,2.44c.18.62,1,1.19,1.77,1.75.95.67,1.94,1.37,2.16,2.36a4.72,4.72,0,0,1-.92,3,4.37,4.37,0,0,0-.84,2.36c.1.63.84,1.3,1.56,1.93a4.7,4.7,0,0,1,1.88,2.6A4.65,4.65,0,0,1,184.2,89a4.37,4.37,0,0,0-1.1,2.25,4.34,4.34,0,0,0,1.33,2.1c.78.87,1.59,1.77,1.59,2.79s-.81,1.92-1.59,2.79a4.32,4.32,0,0,0-1.33,2.09,4.4,4.4,0,0,0,1.1,2.26,4.65,4.65,0,0,1,1.26,2.92,4.64,4.64,0,0,1-1.88,2.59c-.72.64-1.46,1.31-1.56,1.94a4.37,4.37,0,0,0,.84,2.36,4.72,4.72,0,0,1,.92,3c-.22,1-1.21,1.69-2.16,2.36-.78.56-1.59,1.13-1.77,1.75a4.43,4.43,0,0,0,.57,2.44c.45,1.08.91,2.18.57,3.13s-1.38,1.54-2.41,2.11c-.84.46-1.71.94-2,1.54a4.41,4.41,0,0,0,.29,2.49,4.64,4.64,0,0,1,.21,3.17A4.62,4.62,0,0,1,174.5,137a4.57,4.57,0,0,0-2.12,1.31,4.44,4.44,0,0,0,0,2.51,3.23,3.23,0,0,1-3,4.69,4.38,4.38,0,0,0-2.26,1.07,4.41,4.41,0,0,0-.27,2.48,4.65,4.65,0,0,1-.5,3.15,4.7,4.7,0,0,1-3,1.19,4.35,4.35,0,0,0-2.36.81,4.41,4.41,0,0,0-.55,2.44,4.65,4.65,0,0,1-.84,3.07c-.72.72-1.92.78-3.08.85a2.55,2.55,0,0,0-3.25,2.9,4.67,4.67,0,0,1-1.18,3,3.31,3.31,0,0,1-2.08.54c-.35,0-.71,0-1.07,0s-.69,0-1,0a2.67,2.67,0,0,0-1.47.3,4.5,4.5,0,0,0-1.07,2.26c-.32,1.12-.65,2.28-1.51,2.82a2.62,2.62,0,0,1-1.42.34,10.91,10.91,0,0,1-1.76-.2,4.63,4.63,0,0,0-2.5,0,4.32,4.32,0,0,0-1.31,2.12c-.45,1.07-.91,2.19-1.82,2.63a5,5,0,0,1-3.18-.22,4.64,4.64,0,0,0-2.49-.29c-.59.25-1.07,1.12-1.54,2-.56,1-1.14,2.07-2.1,2.41a5,5,0,0,1-3.13-.57,4.54,4.54,0,0,0-2.44-.58c-.62.18-1.2,1-1.75,1.77-.68.95-1.37,1.94-2.36,2.16a4.8,4.8,0,0,1-3-.92,4.35,4.35,0,0,0-2.36-.84c-.64.1-1.3.84-1.94,1.56s-1.58,1.77-2.59,1.88a4.74,4.74,0,0,1-2.92-1.26,4.68,4.68,0,0,0-2.2-1.1A4.35,4.35,0,0,0,99,184.43C98.09,185.21,97.19,186,96.17,186Zm-5-3.84h.11A4.87,4.87,0,0,1,94,183.75c.74.66,1.51,1.35,2.18,1.35s1.44-.69,2.18-1.35a4.88,4.88,0,0,1,2.65-1.56h.11a5.18,5.18,0,0,1,2.73,1.28,4.22,4.22,0,0,0,2.29,1.09c.66-.08,1.35-.84,2-1.58a5,5,0,0,1,2.47-1.86,5.12,5.12,0,0,1,3,.95,4.26,4.26,0,0,0,2.39.83c.65-.15,1.25-1,1.82-1.8A5,5,0,0,1,120,179a5.17,5.17,0,0,1,3,.61,4.3,4.3,0,0,0,2.48.55c.63-.22,1.12-1.12,1.6-2a5,5,0,0,1,2-2.36,5.31,5.31,0,0,1,3.09.26,4.4,4.4,0,0,0,2.53.27c.6-.29,1-1.23,1.37-2.15a4.9,4.9,0,0,1,1.71-2.57,5.22,5.22,0,0,1,3.1-.09,4.56,4.56,0,0,0,2.55,0c.56-.35.84-1.34,1.11-2.29a4.91,4.91,0,0,1,1.42-2.75,3.47,3.47,0,0,1,2-.48c.34,0,.71,0,1.07,0s.69,0,1,0a2.38,2.38,0,0,0,1.51-.34,4.26,4.26,0,0,0,.85-2.4,5,5,0,0,1,1.1-2.89,4.88,4.88,0,0,1,3-.77,4.21,4.21,0,0,0,2.48-.59,4.11,4.11,0,0,0,.58-2.47,3.39,3.39,0,0,1,3.67-4.11,4.15,4.15,0,0,0,2.4-.85,4.26,4.26,0,0,0,.3-2.53,3.38,3.38,0,0,1,3.19-4.48,4.21,4.21,0,0,0,2.29-1.12,4.16,4.16,0,0,0,0-2.54,5,5,0,0,1,.09-3.1,4.85,4.85,0,0,1,2.58-1.71c.91-.38,1.86-.78,2.15-1.37a4.19,4.19,0,0,0-.27-2.53,5,5,0,0,1-.26-3.09,4.92,4.92,0,0,1,2.36-2c.87-.48,1.77-1,2-1.61a4.17,4.17,0,0,0-.55-2.48,4.92,4.92,0,0,1-.61-3,4.88,4.88,0,0,1,2.12-2.24c.81-.58,1.65-1.17,1.8-1.82a4.22,4.22,0,0,0-.83-2.4,5,5,0,0,1-.95-3,5,5,0,0,1,1.86-2.47c.74-.66,1.5-1.35,1.58-2a4.24,4.24,0,0,0-1.09-2.29,4.88,4.88,0,0,1-1.27-2.84,4.88,4.88,0,0,1,1.56-2.65c.66-.74,1.35-1.51,1.35-2.18s-.69-1.44-1.35-2.18a4.88,4.88,0,0,1-1.56-2.65,4.88,4.88,0,0,1,1.27-2.84,4.24,4.24,0,0,0,1.09-2.29c-.08-.66-.84-1.35-1.58-2a5,5,0,0,1-1.86-2.47,5,5,0,0,1,.95-3,4.22,4.22,0,0,0,.83-2.4c-.15-.65-1-1.24-1.8-1.82A4.88,4.88,0,0,1,179,72.31a4.92,4.92,0,0,1,.61-3,4.17,4.17,0,0,0,.55-2.48c-.22-.63-1.12-1.13-2-1.6a5,5,0,0,1-2.36-2A5,5,0,0,1,176,60.1a4.09,4.09,0,0,0,.27-2.52c-.29-.6-1.23-1-2.15-1.37a4.86,4.86,0,0,1-2.57-1.72,4.91,4.91,0,0,1-.09-3.1,4.23,4.23,0,0,0,0-2.54c-.35-.56-1.34-.84-2.29-1.12a4.9,4.9,0,0,1-2.75-1.41,5,5,0,0,1-.44-3.07,4.11,4.11,0,0,0-.3-2.53,4.12,4.12,0,0,0-2.4-.85,4.91,4.91,0,0,1-2.89-1.11,4.85,4.85,0,0,1-.77-3,4.19,4.19,0,0,0-.59-2.48,4.12,4.12,0,0,0-2.48-.58,4.93,4.93,0,0,1-3-.78A4.89,4.89,0,0,1,152.47,29a4.12,4.12,0,0,0-.85-2.4,2.36,2.36,0,0,0-1.51-.34c-.33,0-.67,0-1,0s-.72,0-1.07,0a3.44,3.44,0,0,1-2-.48,4.91,4.91,0,0,1-1.42-2.75c-.27-.95-.56-1.94-1.12-2.29a4.51,4.51,0,0,0-2.54,0,5.22,5.22,0,0,1-3.1-.09,4.9,4.9,0,0,1-1.72-2.57c-.37-.92-.77-1.86-1.36-2.15a4.4,4.4,0,0,0-2.53.27,5.31,5.31,0,0,1-3.09.26,4.94,4.94,0,0,1-2-2.37c-.48-.86-1-1.76-1.61-2a4.3,4.3,0,0,0-2.48.55,5.25,5.25,0,0,1-3,.61,4.86,4.86,0,0,1-2.24-2.13c-.58-.81-1.17-1.64-1.82-1.79a4.27,4.27,0,0,0-2.4.83,5,5,0,0,1-3,.94,5,5,0,0,1-2.47-1.85c-.66-.74-1.35-1.51-2-1.58s-1.48.52-2.29,1.09a5.16,5.16,0,0,1-2.73,1.27H101a4.88,4.88,0,0,1-2.65-1.56c-.74-.67-1.51-1.35-2.18-1.35S94.73,7.92,94,8.59a4.87,4.87,0,0,1-2.66,1.56h-.1A5.16,5.16,0,0,1,88.5,8.88c-.81-.57-1.63-1.16-2.29-1.09s-1.35.84-2,1.58a5,5,0,0,1-2.47,1.85,5,5,0,0,1-3-.94,4.19,4.19,0,0,0-2.4-.83c-.65.15-1.24,1-1.82,1.79a4.78,4.78,0,0,1-2.24,2.12,5.14,5.14,0,0,1-3-.6,4.4,4.4,0,0,0-2.48-.56c-.63.22-1.13,1.12-1.6,2a4.93,4.93,0,0,1-2,2.36,5.15,5.15,0,0,1-3.09-.26A4.55,4.55,0,0,0,57.58,16c-.6.29-1,1.24-1.37,2.16a4.94,4.94,0,0,1-1.72,2.57,5.3,5.3,0,0,1-3.1.09,4.43,4.43,0,0,0-2.54,0c-.56.35-.84,1.34-1.12,2.29a4.9,4.9,0,0,1-1.41,2.75,3.48,3.48,0,0,1-2,.47c-.35,0-.71,0-1.07,0l-1,0a2.44,2.44,0,0,0-1.51.33A4.18,4.18,0,0,0,39.87,29a5,5,0,0,1-1.1,2.89,5,5,0,0,1-3,.77,4.19,4.19,0,0,0-2.48.58,4.14,4.14,0,0,0-.58,2.48,5,5,0,0,1-.78,3A4.88,4.88,0,0,1,29,39.86a4.19,4.19,0,0,0-2.4.86,4.15,4.15,0,0,0-.3,2.52,5,5,0,0,1-.44,3.07,4.91,4.91,0,0,1-2.75,1.42c-.95.27-1.94.55-2.29,1.12a4.22,4.22,0,0,0,0,2.54,4.92,4.92,0,0,1-.09,3.1,4.88,4.88,0,0,1-2.57,1.71c-.92.38-1.86.77-2.15,1.37a4.12,4.12,0,0,0,.27,2.53,5,5,0,0,1,.26,3.09,4.94,4.94,0,0,1-2.37,2c-.87.48-1.76,1-2,1.61a4.12,4.12,0,0,0,.55,2.47,4.94,4.94,0,0,1,.6,3c-.26.93-1.2,1.59-2.12,2.24S9.6,75.72,9.45,76.37a4.15,4.15,0,0,0,.83,2.4,5,5,0,0,1,.94,3,4.88,4.88,0,0,1-1.85,2.46c-.74.67-1.51,1.35-1.58,2A4.24,4.24,0,0,0,8.88,88.5a4.88,4.88,0,0,1,1.27,2.84A4.88,4.88,0,0,1,8.59,94c-.67.74-1.35,1.51-1.35,2.18s.68,1.44,1.35,2.18A4.88,4.88,0,0,1,10.15,101a4.88,4.88,0,0,1-1.27,2.84,4.24,4.24,0,0,0-1.09,2.29c.07.66.84,1.35,1.58,2a5,5,0,0,1,1.85,2.47,5,5,0,0,1-.94,3A4.12,4.12,0,0,0,9.45,116c.15.65,1,1.25,1.79,1.82s1.86,1.32,2.12,2.25a4.92,4.92,0,0,1-.6,3,4.25,4.25,0,0,0-.56,2.48c.22.63,1.12,1.12,2,1.6a4.92,4.92,0,0,1,2.36,2,4.81,4.81,0,0,1-.26,3.09,4.28,4.28,0,0,0-.27,2.53c.29.6,1.24,1,2.16,1.37a4.94,4.94,0,0,1,2.57,1.72,4.88,4.88,0,0,1,.09,3.09,4.18,4.18,0,0,0,0,2.55c.35.56,1.34.84,2.29,1.11A4.94,4.94,0,0,1,25.9,146a4.89,4.89,0,0,1,.43,3.07,4.26,4.26,0,0,0,.3,2.53,4.33,4.33,0,0,0,2.41.85,5,5,0,0,1,2.89,1.1,5,5,0,0,1,.77,3,4.22,4.22,0,0,0,.58,2.48,4.14,4.14,0,0,0,2.48.58,4.88,4.88,0,0,1,3,.78,4.85,4.85,0,0,1,1.1,2.89,4.19,4.19,0,0,0,.86,2.4,2.39,2.39,0,0,0,1.5.34c.33,0,.68,0,1,0s.73,0,1.07,0a3.39,3.39,0,0,1,2,.48,4.91,4.91,0,0,1,1.42,2.75,4.14,4.14,0,0,0,1.12,2.29,4.44,4.44,0,0,0,2.54,0,5.39,5.39,0,0,1,3.1.09,4.91,4.91,0,0,1,1.71,2.58c.38.91.77,1.86,1.37,2.15A4.4,4.4,0,0,0,60.1,176a5.22,5.22,0,0,1,3.09-.26,4.92,4.92,0,0,1,2,2.36c.48.87,1,1.77,1.61,2a4.35,4.35,0,0,0,2.47-.55,5.2,5.2,0,0,1,3-.61,4.93,4.93,0,0,1,2.24,2.12c.58.81,1.17,1.65,1.82,1.8a4.29,4.29,0,0,0,2.4-.83,5.1,5.1,0,0,1,3-.95A5,5,0,0,1,84.19,183c.67.74,1.35,1.5,2,1.58h.11a4.69,4.69,0,0,0,2.18-1.09A5.19,5.19,0,0,1,91.22,182.18Z"/><g id="solid_border" data-name="solid border"><path id="bottom" class="cls-2" d="M96.17,175.71a79.72,79.72,0,0,1-78.65-68.35.51.51,0,0,1,.43-.56.49.49,0,0,1,.56.43,78.42,78.42,0,0,0,155.31,0,.5.5,0,1,1,1,.13A79.71,79.71,0,0,1,96.17,175.71Z"/><path id="top" class="cls-2" d="M174.32,85.76a.51.51,0,0,1-.5-.43,78.42,78.42,0,0,0-155.31,0,.5.5,0,0,1-.56.43.51.51,0,0,1-.43-.57,79.42,79.42,0,0,1,157.29,0,.5.5,0,0,1-.42.57Z"/></g><g id="dots"><circle id="right" class="cls-2" cx="174.13" cy="96.61" r="2.13"/><circle id="left" class="cls-2" cx="18.02" cy="96.61" r="2.13"/></g><g id="lines"><path id="lower" class="cls-2" d="M132.71,143.49H59.63a.5.5,0,1,1,0-1h73.08a.5.5,0,1,1,0,1Z"/><path id="upper" class="cls-2" d="M162.7,115.94H29.63a.51.51,0,0,1-.5-.5.5.5,0,0,1,.5-.5H162.7a.5.5,0,0,1,.5.5A.5.5,0,0,1,162.7,115.94Z"/></g><g id="wheat"><path class="cls-2" d="M110.36,60.43a3.45,3.45,0,0,0,.11-.87c0-1.42-1.06-2.72-1.8-3.72a6.36,6.36,0,0,0-1.77,3.73c0,1.4.78,2.54,1.77,2.55,0,1,1.15,1.77,2.55,1.77A6.36,6.36,0,0,0,115,62.12c-1-.74-2.3-1.79-3.72-1.8A3.51,3.51,0,0,0,110.36,60.43Zm4.18-1.7a6.44,6.44,0,0,0,1.38-3.89c-1.23.18-2.9.36-3.9,1.35s-1.26,2.36-.56,3.07S113.53,59.72,114.54,58.73Zm-7.6,5.12a3.6,3.6,0,0,0,.11-.88c0-1.41-1.06-2.71-1.8-3.72A6.51,6.51,0,0,0,103.48,63c0,1.41.79,2.54,1.78,2.55,0,1,1.14,1.77,2.55,1.78a6.51,6.51,0,0,0,3.73-1.77c-1-.74-2.31-1.8-3.72-1.8A3.6,3.6,0,0,0,106.94,63.85Zm-6.57,6.57a3.45,3.45,0,0,0,.11-.87c0-1.42-1.06-2.72-1.8-3.72a6.36,6.36,0,0,0-1.77,3.73A2.57,2.57,0,0,0,98.21,72a.38.38,0,0,1,.44.07s0,0,0,0h0v0a.39.39,0,0,1,.06.36,2.5,2.5,0,0,0,2.48,1.39A6.36,6.36,0,0,0,105,72.11c-1-.74-2.3-1.79-3.72-1.8A3.51,3.51,0,0,0,100.37,70.42Zm-1.7,1.69a1.8,1.8,0,0,1-.46-.1.26.26,0,0,0-.11.07l-1.94,2-1.94-1.91a.6.6,0,0,0-.15-.09,1.51,1.51,0,0,1-.37.07h0a1.23,1.23,0,0,1-.1.46.44.44,0,0,0,.08.11l2,1.92-3.83,3.89a.4.4,0,0,0,0,.56.43.43,0,0,0,.28.11.39.39,0,0,0,.28-.12l3.83-3.89L100.09,79a.4.4,0,0,0,.56,0,.43.43,0,0,0,.11-.28.39.39,0,0,0-.12-.28l-3.92-3.85,1.94-2a.6.6,0,0,0,.09-.15,1.13,1.13,0,0,1-.06-.36S98.68,72.11,98.67,72.11Zm5-5a3.6,3.6,0,0,0,.11-.88c0-1.41-1.06-2.71-1.8-3.72a6.51,6.51,0,0,0-1.77,3.73c0,1.41.79,2.54,1.78,2.55,0,1,1.14,1.77,2.55,1.78a6.51,6.51,0,0,0,3.73-1.77c-1-.74-2.31-1.8-3.72-1.8A3.6,3.6,0,0,0,103.64,67.15Zm-22.8-7.81c.71-.71.46-2.07-.53-3.07a6.39,6.39,0,0,0-3.89-1.39c.18,1.23.36,2.9,1.35,3.9S80.13,60,80.84,59.34Zm9.57,9.5c1,0,1.77-1.14,1.78-2.55a6.51,6.51,0,0,0-1.77-3.73c-.75,1-1.8,2.31-1.8,3.72a3.17,3.17,0,0,0,.11.88,3.6,3.6,0,0,0-.88-.11c-1.41,0-2.72,1.06-3.72,1.8a6.51,6.51,0,0,0,3.73,1.77C89.27,70.61,90.4,69.83,90.41,68.84Zm3.25,3.31s0,0,0,0h0a.39.39,0,0,1,.37-.07,2.49,2.49,0,0,0,1.39-2.48,6.36,6.36,0,0,0-1.77-3.73c-.74,1-1.79,2.31-1.8,3.72a3.45,3.45,0,0,0,.11.87,3.51,3.51,0,0,0-.87-.11c-1.42,0-2.72,1.06-3.72,1.8a6.36,6.36,0,0,0,3.73,1.77,2.55,2.55,0,0,0,2.44-1.3A.4.4,0,0,1,93.66,72.15Zm-6.55-6.61c1,0,1.77-1.14,1.78-2.54a6.45,6.45,0,0,0-1.77-3.73c-.74,1-1.8,2.3-1.8,3.71a3.6,3.6,0,0,0,.11.88,3.6,3.6,0,0,0-.88-.11c-1.41,0-2.71,1.06-3.72,1.8,1.07.83,2.32,1.78,3.73,1.77S87.1,66.53,87.11,65.54ZM83.7,62.13c1,0,1.77-1.15,1.77-2.55a6.36,6.36,0,0,0-1.77-3.73c-.74,1-1.79,2.31-1.8,3.72a3.45,3.45,0,0,0,.11.87,4.06,4.06,0,0,0-.87-.11c-1.42,0-2.72,1.06-3.72,1.8a6.43,6.43,0,0,0,3.73,1.78C82.55,63.9,83.69,63.12,83.7,62.13Z"/></g></g><g id="text"><text class="cls-3" transform="translate(30.07 135.48)">C<tspan class="cls-4" x="10.92" y="0">e</tspan><tspan class="cls-5" x="20.59" y="0">r</tspan><tspan class="cls-6" x="27.5" y="0">tified </tspan><tspan class="cls-7" x="73.73" y="0">Q</tspan><tspan class="cls-6" x="86.9" y="0">uali</tspan><tspan class="cls-8" x="116.37" y="0">t</tspan><tspan class="cls-9" x="123.08" y="0">y</tspan></text><text class="cls-10" transform="translate(54.25 159.22)">O<tspan class="cls-11" x="9.06" y="0">R</tspan><tspan class="cls-12" x="16.3" y="0">GANIC BEER</tspan></text><text class="cls-13" transform="translate(47.29 107.11)">BREWERY</text><text class="cls-14" transform="translate(41.7 76.5)">es<tspan class="cls-15" x="11.67" y="0">t</tspan><tspan class="cls-16" x="15.94" y="0">.</tspan></text><text class="cls-14" transform="translate(126.9 76.5)">1980</text><text class="cls-17" transform="matrix(0.74, -0.67, 0.67, 0.74, 50.82, 56.19)">O</text><text class="cls-17" transform="matrix(0.81, -0.59, 0.59, 0.81, 56.59, 51.04)">n</text><text class="cls-17" transform="translate(61.67 47.45) rotate(-31.8)">l</text><text class="cls-17" transform="translate(63.89 46.03) rotate(-28.23)">y</text><text class="cls-17" transform="translate(68.55 43.57) rotate(-24.77)"> </text><text class="cls-17" transform="translate(70.71 42.51) rotate(-20.9)">B</text><text class="cls-17" transform="translate(76.39 40.35) rotate(-15.59)">e</text><text class="cls-17" transform="translate(81.79 38.87) rotate(-11.03)">s</text><text class="cls-17" transform="translate(86.15 38.03) rotate(-7.33)">t</text><text class="cls-17" transform="matrix(1, -0.08, 0.08, 1, 89.83, 37.57)"> </text><text class="cls-17" transform="matrix(1, -0.04, 0.04, 1, 92.2, 37.38)">I</text><text class="cls-17" transform="matrix(1, 0.03, -0.03, 1, 94.88, 37.21)">n</text><text class="cls-17" transform="translate(101.09 37.38) rotate(7.2)">g</text><text class="cls-17" transform="matrix(0.98, 0.2, -0.2, 0.98, 107.3, 38.22)">r</text><text class="cls-17" transform="translate(110.9 38.93) rotate(15.92)">e</text><text class="cls-17" transform="translate(116.32 40.46) rotate(21.37)">d</text><text class="cls-17" transform="matrix(0.9, 0.43, -0.43, 0.9, 122.17, 42.82)">i</text><text class="cls-17" transform="translate(124.57 43.9) rotate(29.16)">e</text><text class="cls-17" transform="matrix(0.82, 0.57, -0.57, 0.82, 129.49, 46.64)">n</text><text class="cls-17" transform="translate(134.58 50.19) rotate(38.98)">t</text><text class="cls-17" transform="translate(137.47 52.52) rotate(42.63)">s</text></g></g></g></svg>