<?xml version="1.0" encoding="utf-8"?>
<!-- Generator: Adobe Illustrator 23.0.6, SVG Export Plug-In . SVG Version: 6.00 Build 0)  -->
<svg version="1.1" id="Layer_1" xmlns="http://www.w3.org/2000/svg" xmlns:xlink="http://www.w3.org/1999/xlink" x="0px" y="0px"
	 viewBox="0 0 192.3 192.3" style="enable-background:new 0 0 192.3 192.3;" xml:space="preserve">
<style type="text/css">
	.st0{fill:#1D1D1B;}
	.st1{fill:#FFFFFF;}
	.st2{font-family:'ArialMT';}
	.st3{font-size:18.38px;}
	.st4{font-size:24.51px;}
	.st5{font-size:13.01px;}
	.st6{font-size:11.1904px;}
	.st7{font-size:11.2335px;}
	.st8{font-size:11.21px;}
	.st9{font-size:11.219px;}
	.st10{font-size:11.215px;}
	.st11{font-size:11.2122px;}
	.st12{font-size:11.1814px;}
	.st13{font-size:11.1949px;}
</style>
<title>Asset 1</title>
<g>
	<g id="_3">
		<circle id="badge_shape" class="st0" cx="96.2" cy="96.2" r="96.2"/>
		<g id="elements">
			<path id="curly_border" class="st1" d="M96.2,186c-1,0-1.9-0.8-2.8-1.6c-0.6-0.6-1.3-1.1-2.1-1.3l0,0c-0.8,0.2-1.6,0.5-2.3,1.1
				c-0.8,0.7-1.7,1.1-2.7,1.3h-0.2c-1.1-0.3-2-1-2.6-1.9c-0.6-0.7-1.3-1.5-1.9-1.6c-0.9,0-1.7,0.3-2.4,0.8c-0.9,0.6-1.9,1-3,0.9
				c-1-0.2-1.7-1.2-2.4-2.2c-0.6-0.8-1.1-1.6-1.7-1.8c-0.9,0-1.7,0.2-2.4,0.6c-0.9,0.5-2.1,0.7-3.1,0.6c-1-0.3-1.5-1.4-2.1-2.4
				c-0.5-0.9-0.9-1.7-1.5-2c-0.8-0.1-1.7,0-2.5,0.3c-1,0.4-2.1,0.5-3.2,0.2c-0.9-0.6-1.5-1.6-1.8-2.6c-0.2-0.8-0.7-1.5-1.4-2.1
				c-0.8-0.2-1.7-0.2-2.5,0c-0.6,0.1-1.2,0.2-1.8,0.2c-0.5,0-1-0.1-1.4-0.4c-0.8-0.7-1.4-1.7-1.5-2.8c-0.1-0.8-0.5-1.6-1.1-2.3
				c-0.4-0.2-1-0.4-1.5-0.3c-0.3,0-0.7,0-1,0s-0.7,0-1.1,0c-0.7,0.1-1.5-0.1-2.1-0.5c-0.7-0.8-1.2-1.9-1.2-3c0-0.8-0.3-1.7-0.8-2.4
				c-0.7-0.4-1.6-0.6-2.4-0.5c-1.1,0.1-2.2-0.2-3.1-0.9c-0.6-0.9-0.9-2-0.8-3.1c0.1-0.8-0.1-1.7-0.5-2.4c-0.7-0.5-1.5-0.8-2.4-0.8
				c-1.1,0-2.2-0.4-3-1.2c-0.6-0.8-0.6-2-0.5-3.1c0.2-0.8,0.1-1.7-0.3-2.5c-0.6-0.6-1.4-0.9-2.3-1.1c-1.1-0.3-2.3-0.6-2.8-1.5
				c-0.4-1-0.5-2.1-0.1-3.2c0.2-0.8,0.2-1.7,0-2.5c-0.6-0.6-1.3-1-2.1-1.2c-1.1-0.3-2-0.9-2.6-1.8c-0.3-1.1-0.2-2.2,0.2-3.2
				c0.3-0.8,0.4-1.6,0.3-2.5c-0.3-0.6-1.1-1.1-2-1.5c-1-0.6-2.1-1.1-2.4-2.1c-0.2-1.1,0-2.2,0.6-3.1c0.4-0.7,0.6-1.6,0.6-2.4
				c-0.2-0.6-1-1.2-1.8-1.8c-1-0.7-1.9-1.4-2.1-2.4c-0.1-1.1,0.3-2.1,0.9-3c0.5-0.7,0.8-1.5,0.8-2.4c-0.1-0.6-0.9-1.3-1.6-1.9
				c-0.9-0.8-1.8-1.6-1.9-2.6c0.1-1.1,0.5-2.1,1.3-2.9c0.6-0.6,1-1.4,1.1-2.3C9,100.3,8.5,99.6,7.9,99c-0.8-0.9-1.6-1.8-1.6-2.8
				s0.8-1.9,1.6-2.8c0.6-0.6,1.1-1.3,1.3-2.1c-0.1-0.9-0.5-1.7-1.1-2.3c-0.7-0.8-1.2-1.8-1.3-2.9c0.3-1.1,1-2,1.9-2.6
				c0.7-0.6,1.4-1.3,1.6-1.9c0-0.9-0.3-1.7-0.8-2.4c-0.7-0.9-1-1.9-0.9-3c0.2-1,1.2-1.7,2.1-2.4c0.8-0.6,1.6-1.1,1.8-1.8
				c0-0.9-0.2-1.7-0.6-2.4c-0.5-0.9-0.7-2.1-0.6-3.1c0.3-1,1.4-1.5,2.4-2.1c0.8-0.5,1.7-0.9,2-1.5c0.1-0.8,0-1.7-0.3-2.5
				c-0.3-1.1-0.7-2.3-0.2-3.2c0.6-0.9,1.6-1.5,2.6-1.8c0.8-0.2,1.6-0.7,2.1-1.4c0.2-0.8,0.2-1.7,0-2.5c-0.3-1-0.3-2.2,0.1-3.2
				c0.5-0.9,1.7-1.2,2.8-1.5c0.8-0.1,1.6-0.5,2.3-1.1c0.3-0.8,0.4-1.7,0.3-2.5c-0.1-1.2-0.1-2.4,0.5-3.1s1.8-1,3-1.2
				c0.8,0,1.7-0.3,2.4-0.8c0.4-0.7,0.6-1.6,0.5-2.4c0.1-1.2,0.1-2.4,0.8-3.1c0.9-0.6,2-0.9,3.1-0.9c0.8,0.1,1.7-0.1,2.4-0.5
				c0.5-0.7,0.7-1.5,0.8-2.3c0.2-1.1,0.4-2.3,1.2-3c0.6-0.4,1.3-0.6,2.1-0.5c0.3,0,0.7,0,1.1,0s0.7,0,1,0c0.5,0,1-0.1,1.5-0.3
				c0.6-0.6,0.9-1.4,1.1-2.3c0.2-1.1,0.7-2.1,1.5-2.8c0.4-0.2,0.9-0.4,1.4-0.3c0.6,0,1.2,0.1,1.8,0.2c0.8,0.2,1.7,0.2,2.5,0
				c0.6-0.6,1.1-1.3,1.3-2.1c0.5-1.1,0.9-2.2,1.8-2.6c1.1-0.3,2.2-0.2,3.2,0.2c0.8,0.3,1.6,0.4,2.5,0.3c0.6-0.3,1.1-1.1,1.5-2
				c0.6-1,1.2-2.1,2.1-2.4c1.1-0.2,2.2,0,3.1,0.6c0.7,0.4,1.6,0.6,2.4,0.6c0.6-0.2,1.2-1,1.8-1.8c0.7-1,1.4-1.9,2.4-2.1
				c1.1,0,2.1,0.3,3,0.9c0.7,0.5,1.5,0.8,2.4,0.8c0.6-0.1,1.3-0.9,1.9-1.6C84.1,7.7,85,7,86.1,6.7c1.1,0.1,2.1,0.6,2.9,1.4
				c0.6,0.6,1.4,0.9,2.2,1.1C92,9,92.8,8.6,93.4,7.9c0.9-0.8,1.8-1.6,2.8-1.6s1.9,0.8,2.8,1.6c0.6,0.6,1.3,1.1,2.1,1.3l0,0
				c0.8-0.2,1.6-0.5,2.3-1.1c0.8-0.7,1.8-1.2,2.9-1.3c1.1,0.3,2,1,2.6,1.9c0.6,0.7,1.3,1.4,1.9,1.6c0.9,0,1.7-0.3,2.4-0.8
				c0.9-0.6,1.9-1,3-0.9c1,0.2,1.7,1.2,2.4,2.2c0.6,0.8,1.1,1.6,1.8,1.8c0.9,0,1.7-0.2,2.4-0.6c1-0.5,2.1-0.7,3.1-0.6
				c1,0.3,1.5,1.4,2.1,2.4c0.5,0.8,0.9,1.7,1.5,2c0.8,0.1,1.7,0,2.5-0.3c1-0.4,2.1-0.5,3.2-0.2c0.9,0.4,1.4,1.6,1.8,2.6
				c0.2,0.8,0.7,1.6,1.3,2.1c0.8,0.2,1.7,0.2,2.5,0c0.6-0.1,1.2-0.2,1.8-0.2c0.5,0,1,0.1,1.4,0.4c0.9,0.5,1.2,1.7,1.5,2.8
				c0.1,0.8,0.5,1.6,1.1,2.3c0.4,0.2,1,0.3,1.5,0.3c0.3,0,0.7,0,1,0s0.7,0,1.1,0c0.7-0.1,1.5,0.1,2.1,0.5c0.8,0.6,1,1.8,1.2,3
				c0,0.8,0.3,1.7,0.8,2.4c0.7,0.4,1.6,0.6,2.4,0.5c1.2,0.1,2.4,0.1,3.1,0.9s0.8,1.9,0.9,3.1c-0.1,0.8,0.1,1.7,0.5,2.4
				c0.7,0.5,1.5,0.8,2.4,0.8c1.1,0,2.2,0.4,3,1.2c0.6,0.8,0.6,2,0.5,3.2c-0.2,0.8-0.1,1.7,0.3,2.5c0.6,0.6,1.4,0.9,2.3,1.1
				c1.1,0.2,2.1,0.7,2.8,1.5c0.4,1,0.5,2.1,0.1,3.2c-0.2,0.8-0.2,1.7,0,2.5c0.6,0.6,1.3,1.1,2.1,1.3c1.1,0.5,2.2,0.9,2.6,1.8
				c0.3,1.1,0.2,2.2-0.2,3.2c-0.3,0.8-0.4,1.6-0.3,2.5c0.3,0.6,1.1,1.1,2,1.5c1,0.6,2.1,1.2,2.4,2.1c0.2,1.1,0,2.2-0.6,3.1
				c-0.4,0.7-0.6,1.6-0.6,2.4c0.2,0.6,1,1.2,1.8,1.8c0.9,0.7,1.9,1.4,2.2,2.4c0,1.1-0.3,2.1-0.9,3c-0.5,0.7-0.8,1.5-0.8,2.4
				c0.1,0.6,0.8,1.3,1.6,1.9c0.9,0.6,1.6,1.5,1.9,2.6c-0.1,1-0.6,2-1.3,2.8c-0.6,0.6-1,1.4-1.1,2.3c0.2,0.8,0.7,1.5,1.3,2.1
				c0.8,0.9,1.6,1.8,1.6,2.8s-0.8,1.9-1.6,2.8c-0.6,0.6-1.1,1.3-1.3,2.1c0.1,0.8,0.5,1.6,1.1,2.3c0.8,0.8,1.2,1.8,1.3,2.9
				c-0.3,1.1-1,2-1.9,2.6c-0.7,0.6-1.5,1.3-1.6,1.9c0,0.9,0.3,1.7,0.8,2.4c0.6,0.9,1,1.9,0.9,3c-0.2,1-1.2,1.7-2.2,2.4
				c-0.8,0.6-1.6,1.1-1.8,1.8c0,0.9,0.1,1.7,0.6,2.4c0.4,1.1,0.9,2.2,0.6,3.1s-1.4,1.5-2.4,2.1c-0.8,0.5-1.7,0.9-2,1.5
				c-0.1,0.8,0,1.7,0.3,2.5c0.4,1,0.5,2.1,0.2,3.2c-0.6,0.9-1.5,1.6-2.6,1.9c-0.8,0.2-1.5,0.7-2.1,1.3c-0.2,0.8-0.2,1.7,0,2.5
				c0.8,1.6,0.2,3.5-1.4,4.3c-0.5,0.2-1,0.4-1.6,0.3c-0.8,0.1-1.6,0.5-2.3,1.1c-0.3,0.8-0.4,1.6-0.3,2.5c0.2,1.1,0,2.2-0.5,3.1
				c-0.8,0.7-1.9,1.2-3,1.2c-0.8,0-1.7,0.3-2.4,0.8c-0.4,0.7-0.6,1.6-0.6,2.4c0.1,1.1-0.2,2.2-0.8,3.1c-0.7,0.7-1.9,0.8-3.1,0.9
				c-1.3-0.4-2.8,0.4-3.2,1.7c-0.1,0.4-0.1,0.8-0.1,1.2c0,1.1-0.4,2.2-1.2,3c-0.6,0.4-1.3,0.6-2.1,0.5c-0.4,0-0.7,0-1.1,0
				s-0.7,0-1,0c-0.5,0-1,0.1-1.5,0.3c-0.6,0.6-0.9,1.4-1.1,2.3c-0.3,1.1-0.6,2.3-1.5,2.8c-0.4,0.2-0.9,0.4-1.4,0.3
				c-0.6,0-1.2-0.1-1.8-0.2c-0.8-0.2-1.7-0.2-2.5,0c-0.6,0.6-1.1,1.3-1.3,2.1c-0.4,1.1-0.9,2.2-1.8,2.6c-1.1,0.3-2.2,0.2-3.2-0.2
				c-0.8-0.3-1.6-0.4-2.5-0.3c-0.6,0.3-1.1,1.1-1.5,2c-0.6,1-1.1,2.1-2.1,2.4c-1.1,0.2-2.2,0-3.1-0.6c-0.7-0.4-1.6-0.6-2.4-0.6
				c-0.6,0.2-1.2,1-1.8,1.8c-0.7,0.9-1.4,1.9-2.4,2.2c-1.1,0-2.1-0.3-3-0.9c-0.7-0.5-1.5-0.8-2.4-0.8c-0.6,0.1-1.3,0.8-1.9,1.6
				s-1.6,1.8-2.6,1.9c-1.1-0.1-2.1-0.5-2.9-1.3c-0.6-0.6-1.4-0.9-2.2-1.1c-0.8,0.2-1.5,0.6-2.1,1.1C98.1,185.2,97.2,186,96.2,186z
				 M91.2,182.2h0.1c1.1,0.2,2,0.8,2.7,1.6c0.7,0.7,1.5,1.4,2.2,1.4s1.4-0.7,2.2-1.4c0.7-0.8,1.6-1.3,2.7-1.6h0.1
				c1,0.1,2,0.6,2.7,1.3c0.6,0.6,1.4,1,2.3,1.1c0.7-0.1,1.3-0.8,2-1.6c0.6-0.9,1.5-1.5,2.5-1.9c1.1,0,2.1,0.3,3,0.9
				c0.7,0.5,1.5,0.8,2.4,0.8c0.7-0.1,1.3-1,1.8-1.8c0.5-0.9,1.3-1.6,2.2-2.1c1-0.1,2.1,0.1,3,0.6c0.8,0.4,1.6,0.6,2.5,0.6
				c0.6-0.2,1.1-1.1,1.6-2c0.4-1,1.1-1.8,2-2.4c1-0.2,2.1-0.1,3.1,0.3c0.8,0.3,1.7,0.4,2.5,0.3c0.6-0.3,1-1.2,1.4-2.1
				c0.3-1,0.9-1.9,1.7-2.6c1-0.3,2.1-0.4,3.1-0.1c0.8,0.2,1.7,0.2,2.6,0c0.6-0.4,0.8-1.3,1.1-2.3c0.2-1,0.7-2,1.4-2.8
				c0.6-0.4,1.3-0.5,2-0.5c0.3,0,0.7,0,1.1,0s0.7,0,1,0c0.5,0.1,1.1-0.1,1.5-0.3c0.5-0.7,0.8-1.5,0.9-2.4c0.1-1.1,0.4-2.1,1.1-2.9
				c0.9-0.6,1.9-0.8,3-0.8c0.9,0.1,1.7-0.1,2.5-0.6c0.4-0.7,0.7-1.6,0.6-2.5c-0.4-1.8,0.7-3.6,2.6-4c0.4-0.1,0.7-0.1,1.1-0.1
				c0.9,0,1.7-0.3,2.4-0.9c0.4-0.8,0.5-1.7,0.3-2.5c-0.6-1.8,0.3-3.7,2.1-4.3c0.4-0.1,0.7-0.2,1.1-0.2c0.9-0.1,1.7-0.5,2.3-1.1
				c0.3-0.8,0.3-1.7,0-2.5c-0.3-1-0.3-2.1,0.1-3.1c0.7-0.8,1.6-1.4,2.6-1.7c0.9-0.4,1.9-0.8,2.1-1.4c0.2-0.9,0.1-1.7-0.3-2.5
				c-0.4-1-0.5-2.1-0.3-3.1c0.6-0.9,1.4-1.6,2.4-2c0.9-0.5,1.8-1,2-1.6c0.1-0.9-0.1-1.7-0.6-2.5c-0.5-0.9-0.7-2-0.6-3
				c0.4-1,1.2-1.7,2.1-2.2c0.8-0.6,1.6-1.2,1.8-1.8c0-0.9-0.3-1.7-0.8-2.4c-0.6-0.9-1-1.9-0.9-3c0.3-1,1-1.9,1.9-2.5
				c0.7-0.7,1.5-1.3,1.6-2c-0.1-0.9-0.5-1.7-1.1-2.3c-0.7-0.8-1.2-1.8-1.3-2.8c0.2-1,0.8-2,1.6-2.7c0.7-0.7,1.4-1.5,1.4-2.2
				s-0.7-1.4-1.4-2.2c-0.8-0.7-1.3-1.6-1.6-2.7c0.1-1.1,0.5-2.1,1.3-2.8c0.6-0.6,1-1.4,1.1-2.3c-0.1-0.7-0.8-1.3-1.6-2
				c-0.9-0.6-1.5-1.5-1.9-2.5c0-1.1,0.3-2.1,0.9-3c0.5-0.7,0.8-1.5,0.8-2.4c-0.1-0.7-1-1.2-1.8-1.8c-0.9-0.5-1.6-1.3-2-2.2
				c-0.1-1,0.1-2.1,0.6-3c0.4-0.7,0.6-1.6,0.6-2.5c-0.2-0.6-1.1-1.1-2-1.6c-1-0.4-1.8-1.1-2.4-2c-0.3-1-0.2-2.1,0.2-3.1
				c0.4-0.8,0.4-1.7,0.3-2.5c-0.3-0.6-1.2-1-2.1-1.4c-1-0.3-1.9-0.9-2.6-1.7c-0.4-1-0.4-2.1-0.1-3.1c0.3-0.8,0.3-1.7,0-2.5
				c-0.4-0.6-1.3-0.8-2.3-1.1c-1-0.2-2-0.7-2.8-1.4c-0.5-1-0.6-2-0.4-3.1c0.2-0.9,0.1-1.7-0.3-2.5c-0.7-0.5-1.5-0.8-2.4-0.8
				c-1.1,0-2.1-0.4-2.9-1.1c-0.6-0.9-0.8-1.9-0.8-3c0.1-0.9-0.1-1.7-0.6-2.5c-0.7-0.5-1.6-0.7-2.5-0.6c-1.1,0.1-2.1-0.2-3-0.8
				c-0.7-0.8-1-1.9-1.1-2.9c0-0.9-0.3-1.7-0.9-2.4c-0.5-0.3-1-0.4-1.5-0.3c-0.3,0-0.7,0-1,0s-0.7,0-1.1,0c-0.7,0-1.4-0.1-2-0.5
				c-0.8-0.7-1.3-1.7-1.4-2.8c-0.3-1-0.6-1.9-1.1-2.3c-0.8-0.2-1.7-0.2-2.5,0c-1,0.3-2.1,0.3-3.1-0.1c-0.8-0.6-1.4-1.6-1.7-2.6
				c-0.4-0.9-0.8-1.9-1.4-2.1c-0.9-0.2-1.7-0.1-2.5,0.3c-1,0.4-2.1,0.5-3.1,0.3c-0.9-0.6-1.6-1.4-2-2.4c-0.5-0.9-1-1.8-1.6-2
				c-0.9-0.1-1.7,0.1-2.5,0.6c-0.9,0.5-2,0.7-3,0.6c-1-0.4-1.7-1.2-2.2-2.1c-0.6-0.8-1.2-1.6-1.8-1.8c-0.9,0-1.7,0.3-2.4,0.8
				c-0.9,0.6-1.9,1-3,0.9c-1-0.3-1.9-1-2.5-1.9c-0.7-0.7-1.3-1.5-2-1.6s-1.5,0.5-2.3,1.1c-0.8,0.7-1.7,1.1-2.7,1.3H101
				c-1-0.2-2-0.8-2.7-1.6c-0.7-0.7-1.5-1.3-2.2-1.3S94.7,7.9,94,8.6c-0.7,0.8-1.6,1.3-2.7,1.6h-0.1c-1-0.1-2-0.6-2.7-1.3
				c-0.8-0.6-1.6-1.2-2.3-1.1s-1.3,0.8-2,1.6c-0.6,0.9-1.5,1.5-2.5,1.9c-1.1,0-2.1-0.3-3-0.9c-0.7-0.5-1.5-0.8-2.4-0.8
				c-0.7,0.1-1.2,1-1.8,1.8c-0.5,0.9-1.3,1.7-2.2,2.1c-1,0.1-2.1-0.1-3-0.6c-0.8-0.4-1.6-0.6-2.5-0.6c-0.6,0.2-1.1,1.1-1.6,2
				c-0.4,1-1.1,1.8-2,2.4c-1,0.2-2.1,0.1-3.1-0.3c-0.8-0.3-1.7-0.4-2.5-0.3c-0.6,0.3-1,1.2-1.4,2.2c-0.3,1-0.9,1.9-1.7,2.6
				c-1,0.3-2.1,0.4-3.1,0.1c-0.8-0.2-1.7-0.2-2.5,0c-0.6,0.4-0.8,1.3-1.1,2.3c-0.2,1-0.7,2-1.4,2.8c-0.6,0.4-1.3,0.5-2,0.5
				c-0.3,0-0.7,0-1.1,0h-1c-0.5-0.1-1.1,0.1-1.5,0.3c-0.5,0.7-0.8,1.5-0.9,2.3c-0.1,1.1-0.4,2.1-1.1,2.9c-0.9,0.6-1.9,0.8-3,0.8
				c-0.9-0.1-1.7,0.1-2.5,0.6c-0.4,0.7-0.7,1.6-0.6,2.5c0.1,1.1-0.2,2.1-0.8,3c-0.8,0.7-1.9,1.1-2.9,1.1c-0.9,0-1.7,0.3-2.4,0.9
				c-0.4,0.8-0.5,1.7-0.3,2.5c0.2,1,0,2.1-0.4,3.1c-0.7,0.8-1.7,1.3-2.8,1.4c-1,0.3-1.9,0.5-2.3,1.1c-0.3,0.8-0.3,1.7,0,2.5
				c0.3,1,0.3,2.1-0.1,3.1c-0.6,0.8-1.6,1.4-2.6,1.7c-0.9,0.4-1.9,0.8-2.1,1.4c-0.2,0.9-0.1,1.7,0.3,2.5c0.4,1,0.5,2.1,0.3,3.1
				c-0.6,0.9-1.4,1.6-2.4,2c-0.9,0.5-1.8,1-2,1.6c-0.1,0.9,0.1,1.7,0.6,2.5c0.5,0.9,0.7,2,0.6,3c-0.3,0.9-1.2,1.6-2.1,2.2
				s-1.6,1.2-1.8,1.9c0,0.9,0.3,1.7,0.8,2.4c0.6,0.9,1,1.9,0.9,3c-0.3,1-1,1.9-1.9,2.5c-0.7,0.7-1.5,1.3-1.6,2
				c0.1,0.8,0.5,1.6,1.1,2.3c0.7,0.8,1.2,1.8,1.3,2.8c-0.2,1-0.8,2-1.6,2.7c-0.7,0.7-1.3,1.5-1.3,2.2s0.7,1.4,1.3,2.2
				c0.8,0.7,1.3,1.6,1.6,2.6c-0.1,1.1-0.5,2.1-1.3,2.8c-0.6,0.6-1,1.4-1.1,2.3c0.1,0.7,0.8,1.3,1.6,2c0.9,0.6,1.5,1.5,1.9,2.5
				c0,1.1-0.3,2.1-0.9,3c-0.5,0.7-0.8,1.5-0.8,2.4c0.1,0.7,1,1.3,1.8,1.8s1.9,1.3,2.1,2.3c0.1,1-0.1,2.1-0.6,3
				c-0.4,0.8-0.6,1.6-0.6,2.5c0.2,0.6,1.1,1.1,2,1.6c1,0.4,1.8,1.1,2.4,2c0.3,1,0.2,2.1-0.3,3.1c-0.3,0.8-0.4,1.7-0.3,2.5
				c0.3,0.6,1.2,1,2.2,1.4c1,0.3,1.9,0.9,2.6,1.7c0.4,1,0.4,2.1,0.1,3.1c-0.3,0.8-0.3,1.7,0,2.6c0.4,0.6,1.3,0.8,2.3,1.1
				c1,0.2,2,0.6,2.8,1.4c0.5,0.9,0.6,2,0.4,3.1c-0.2,0.9-0.1,1.7,0.3,2.5c0.7,0.5,1.5,0.8,2.4,0.9c1.1,0.1,2.1,0.4,2.9,1.1
				c0.6,0.9,0.8,1.9,0.8,3c-0.1,0.9,0.1,1.7,0.6,2.5c0.7,0.4,1.6,0.7,2.5,0.6c1.1-0.1,2.1,0.2,3,0.8c0.7,0.8,1.1,1.8,1.1,2.9
				c0,0.9,0.3,1.7,0.9,2.4c0.4,0.3,1,0.4,1.5,0.3c0.3,0,0.7,0,1,0s0.7,0,1.1,0c0.7-0.1,1.4,0.1,2,0.5c0.8,0.7,1.3,1.7,1.4,2.8
				c0.1,0.9,0.5,1.7,1.1,2.3c0.8,0.2,1.7,0.2,2.5,0c1-0.3,2.1-0.2,3.1,0.1c0.8,0.7,1.4,1.6,1.7,2.6c0.4,0.9,0.8,1.9,1.4,2.1
				c0.9,0.1,1.8,0,2.6-0.4c1-0.4,2.1-0.5,3.1-0.3c0.9,0.6,1.6,1.4,2,2.4c0.5,0.9,1,1.8,1.6,2c0.9,0.1,1.7-0.1,2.5-0.6
				c0.9-0.5,2-0.7,3-0.6c1,0.4,1.7,1.2,2.2,2.1c0.6,0.8,1.2,1.6,1.8,1.8c0.9,0,1.7-0.3,2.4-0.8c0.9-0.6,1.9-1,3-0.9
				c1,0.4,1.9,1,2.5,1.9c0.7,0.7,1.3,1.5,2,1.6h0.1c0.8-0.2,1.6-0.5,2.2-1.1C89.2,182.8,90.2,182.3,91.2,182.2L91.2,182.2z"/>
			<g id="solid_border">
				<path id="bottom" class="st1" d="M96.2,175.7c-39.5-0.1-73-29.2-78.7-68.3c0-0.3,0.2-0.5,0.4-0.6c0.3,0,0.5,0.1,0.6,0.4
					c0,0,0,0,0,0c6,42.9,45.7,72.8,88.6,66.7c34.6-4.9,61.9-32.1,66.7-66.7c0-0.3,0.3-0.5,0.6-0.4c0.3,0,0.5,0.3,0.4,0.6
					C169.2,146.5,135.7,175.6,96.2,175.7z"/>
				<path id="top" class="st1" d="M174.3,85.8c-0.2,0-0.5-0.2-0.5-0.4c-6-42.9-45.7-72.8-88.6-66.7c-34.6,4.9-61.9,32.1-66.7,66.7
					c0,0.3-0.3,0.5-0.6,0.4c-0.3,0-0.5-0.3-0.4-0.6c6.1-43.4,46.3-73.7,89.7-67.6c35.1,4.9,62.6,32.5,67.6,67.6
					C174.9,85.5,174.7,85.7,174.3,85.8C174.4,85.8,174.4,85.8,174.3,85.8L174.3,85.8z"/>
			</g>
			<g id="dots">
				<circle id="right" class="st1" cx="174.1" cy="96.6" r="2.1"/>
				<circle id="left" class="st1" cx="18" cy="96.6" r="2.1"/>
			</g>
			<g id="lines">
				<path id="lower" class="st1" d="M132.7,143.5H59.6c-0.3,0-0.5-0.2-0.5-0.5s0.2-0.5,0.5-0.5h73.1c0.3,0,0.5,0.2,0.5,0.5
					S133,143.5,132.7,143.5z"/>
				<path id="upper" class="st1" d="M162.7,115.9H29.6c-0.3,0-0.5-0.2-0.5-0.5c0-0.3,0.2-0.5,0.5-0.5h133.1c0.3,0,0.5,0.2,0.5,0.5
					S163,115.9,162.7,115.9z"/>
			</g>
			<g id="wheat">
				<path class="st1" d="M110.4,60.4c0.1-0.3,0.1-0.6,0.1-0.9c0-1.4-1.1-2.7-1.8-3.7c-1,1-1.6,2.3-1.8,3.7c0,1.4,0.8,2.5,1.8,2.5
					c0,1,1.2,1.8,2.6,1.8c1.4-0.1,2.8-0.8,3.8-1.8c-1-0.7-2.3-1.8-3.7-1.8C111,60.3,110.7,60.4,110.4,60.4z M114.5,58.7
					c0.9-1.1,1.4-2.5,1.4-3.9c-1.2,0.2-2.9,0.4-3.9,1.3s-1.3,2.4-0.6,3.1S113.5,59.7,114.5,58.7z M106.9,63.8
					c0.1-0.3,0.1-0.6,0.1-0.9c0-1.4-1.1-2.7-1.8-3.7c-1,1-1.6,2.3-1.8,3.8c0,1.4,0.8,2.5,1.8,2.6c0,1,1.1,1.8,2.6,1.8
					c1.4-0.2,2.7-0.8,3.7-1.8c-1-0.7-2.3-1.8-3.7-1.8C107.5,63.8,107.2,63.8,106.9,63.8z M100.4,70.4c0.1-0.3,0.1-0.6,0.1-0.9
					c0-1.4-1.1-2.7-1.8-3.7c-1,1-1.6,2.3-1.8,3.7c-0.1,1,0.4,1.9,1.3,2.4c0.1-0.1,0.3,0,0.4,0.1l0,0l0,0l0,0
					c0.1,0.1,0.1,0.2,0.1,0.4c0.5,0.9,1.4,1.5,2.5,1.4c1.4-0.1,2.8-0.7,3.8-1.7c-1-0.7-2.3-1.8-3.7-1.8
					C101,70.3,100.7,70.3,100.4,70.4z M98.7,72.1c-0.2,0-0.3,0-0.5-0.1c0,0-0.1,0-0.1,0.1l-1.9,2l-1.9-1.9c0,0-0.1-0.1-0.2-0.1
					c-0.1,0-0.2,0.1-0.4,0.1l0,0c0,0.2,0,0.3-0.1,0.5c0,0,0,0.1,0.1,0.1l2,1.9l-3.8,3.9c-0.2,0.2-0.2,0.4,0,0.6
					c0.1,0.1,0.2,0.1,0.3,0.1c0.1,0,0.2,0,0.3-0.1l3.8-3.9l3.8,3.8c0.2,0.2,0.4,0.2,0.6,0c0.1-0.1,0.1-0.2,0.1-0.3
					c0-0.1,0-0.2-0.1-0.3l-3.9-3.8l1.9-2c0,0,0.1-0.1,0.1-0.2C98.7,72.3,98.7,72.2,98.7,72.1C98.7,72.1,98.7,72.1,98.7,72.1z
					 M103.7,67.1c0.1-0.3,0.1-0.6,0.1-0.9c0-1.4-1.1-2.7-1.8-3.7c-1,1-1.6,2.3-1.8,3.7c0,1.4,0.8,2.5,1.8,2.6c0,1,1.1,1.8,2.6,1.8
					c1.4-0.2,2.7-0.8,3.7-1.8c-1-0.7-2.3-1.8-3.7-1.8C104.2,67,103.9,67.1,103.7,67.1L103.7,67.1z M80.9,59.3
					c0.7-0.7,0.5-2.1-0.5-3.1c-1.1-0.9-2.5-1.4-3.9-1.4c0.2,1.2,0.4,2.9,1.3,3.9S80.1,60,80.9,59.3L80.9,59.3z M90.4,68.8
					c1,0,1.8-1.1,1.8-2.6c-0.2-1.4-0.8-2.7-1.8-3.7c-0.8,1-1.8,2.3-1.8,3.7c0,0.3,0,0.6,0.1,0.9C88.5,67,88.2,67,87.9,67
					c-1.4,0-2.7,1.1-3.7,1.8c1,1,2.3,1.6,3.7,1.8C89.3,70.6,90.4,69.8,90.4,68.8L90.4,68.8z M93.7,72.1L93.7,72.1L93.7,72.1
					c0.1-0.1,0.2-0.1,0.4-0.1c0.9-0.5,1.5-1.4,1.4-2.5c-0.2-1.4-0.8-2.7-1.8-3.7c-0.7,1-1.8,2.3-1.8,3.7c0,0.3,0,0.6,0.1,0.9
					c-0.3-0.1-0.6-0.1-0.9-0.1c-1.4,0-2.7,1.1-3.7,1.8c1,1,2.3,1.6,3.7,1.8c1,0.1,2-0.4,2.4-1.3C93.5,72.4,93.5,72.3,93.7,72.1
					L93.7,72.1z M87.1,65.5c1,0,1.8-1.1,1.8-2.5c-0.2-1.4-0.8-2.7-1.8-3.7c-0.7,1-1.8,2.3-1.8,3.7c0,0.3,0,0.6,0.1,0.9
					c-0.3-0.1-0.6-0.1-0.9-0.1c-1.4,0-2.7,1.1-3.7,1.8c1.1,0.8,2.3,1.8,3.7,1.8S87.1,66.5,87.1,65.5L87.1,65.5z M83.7,62.1
					c1,0,1.8-1.2,1.8-2.5c-0.2-1.4-0.8-2.7-1.8-3.7c-0.7,1-1.8,2.3-1.8,3.7c0,0.3,0,0.6,0.1,0.9c-0.3-0.1-0.6-0.1-0.9-0.1
					c-1.4,0-2.7,1.1-3.7,1.8c1,1,2.3,1.6,3.7,1.8C82.6,63.9,83.7,63.1,83.7,62.1z"/>
			</g>
		</g>
		<g id="text">
			<text transform="matrix(1 0 0 1 30.07 135.48)" class="st1 st2 st3">C</text>
			<text transform="matrix(1 0 0 1 40.99 135.48)" class="st1 st2 st3">e</text>
			<text transform="matrix(1 0 0 1 50.66 135.48)" class="st1 st2 st3">r</text>
			<text transform="matrix(1 0 0 1 57.57 135.48)" class="st1 st2 st3">tified </text>
			<text transform="matrix(1 0 0 1 103.8 135.48)" class="st1 st2 st3">Q</text>
			<text transform="matrix(1 0 0 1 116.97 135.48)" class="st1 st2 st3">uali</text>
			<text transform="matrix(1 0 0 1 146.44 135.48)" class="st1 st2 st3">t</text>
			<text transform="matrix(1 0 0 1 153.15 135.48)" class="st1 st2 st3">y</text>
			<text transform="matrix(1 0 0 1 33.4992 112.1793)" class="st1 st2 st4">DH HERBS</text>
			<text transform="matrix(1 0 0 1 41.7 76.5)" class="st1 st2 st5">es</text>
			<text transform="matrix(1 0 0 1 53.37 76.5)" class="st1 st2 st5">t</text>
			<text transform="matrix(1 0 0 1 57.64 76.5)" class="st1 st2 st5">.</text>
			<text transform="matrix(1 0 0 1 126.9 76.5)" class="st1 st2 st5">2020</text>
			<text transform="matrix(0.7413 -0.6712 0.6712 0.7413 50.8191 56.1893)" class="st1 st2 st6">O</text>
			<text transform="matrix(0.8083 -0.5888 0.5888 0.8083 56.59 51.0401)" class="st1 st2 st7">n</text>
			<text transform="matrix(0.8499 -0.527 0.527 0.8499 61.6701 47.4498)" class="st1 st2 st8">l</text>
			<text transform="matrix(0.8811 -0.473 0.473 0.8811 63.89 46.0301)" class="st1 st2 st8">y</text>
			<text transform="matrix(0.9342 -0.3567 0.3567 0.9342 70.7099 42.51)" class="st1 st2 st8">B</text>
			<text transform="matrix(0.9632 -0.2688 0.2688 0.9632 76.39 40.35)" class="st1 st2 st8">e</text>
			<text transform="matrix(0.9815 -0.1913 0.1913 0.9815 81.79 38.87)" class="st1 st2 st8">s</text>
			<text transform="matrix(0.9918 -0.1276 0.1276 0.9918 86.15 38.03)" class="st1 st2 st8">t</text>
			<text transform="matrix(0.9992 -3.996804e-02 3.996804e-02 0.9992 92.1996 37.3799)" class="st1 st2 st9">I</text>
			<text transform="matrix(0.9996 2.998651e-02 -2.998651e-02 0.9996 94.8794 37.2099)" class="st1 st2 st10">n</text>
			<text transform="matrix(0.9921 0.1253 -0.1253 0.9921 101.09 37.38)" class="st1 st2 st8">g</text>
			<text transform="matrix(0.9798 0.2 -0.2 0.9798 107.3004 38.2197)" class="st1 st2 st11">r</text>
			<text transform="matrix(0.9616 0.2743 -0.2743 0.9616 110.9 38.93)" class="st1 st2 st8">e</text>
			<text transform="matrix(0.9312 0.3644 -0.3644 0.9312 116.32 40.4601)" class="st1 st2 st8">d</text>
			<text transform="matrix(0.9023 0.4311 -0.4311 0.9023 122.1695 42.8201)" class="st1 st2 st12">i</text>
			<text transform="matrix(0.8733 0.4873 -0.4873 0.8733 124.5698 43.9)" class="st1 st2 st8">e</text>
			<text transform="matrix(0.8211 0.5708 -0.5708 0.8211 129.4904 46.6391)" class="st1 st2 st13">n</text>
			<text transform="matrix(0.7774 0.629 -0.629 0.7774 134.5802 50.19)" class="st1 st2 st8">t</text>
			<text transform="matrix(0.7357 0.6773 -0.6773 0.7357 137.4699 52.52)" class="st1 st2 st8">s</text>
		</g>
	</g>
</g>
</svg>
